<svg width="318" height="251" viewBox="0 0 318 251" fill="none" xmlns="http://www.w3.org/2000/svg">
<g clip-path="url(#clip0_2_115)">
<path d="M47.4792 202.668L48.7222 -0.000102005C49.3126 -0.0312183 49.5146 0.396631 49.7864 0.668899C82.7869 34.1112 115.772 67.569 148.788 100.996C149.565 101.781 149.549 102.163 148.772 102.917C144.414 107.157 140.126 111.459 135.807 115.729C131.099 120.397 126.384 125.049 121.668 129.716C116.657 134.671 111.647 139.634 106.628 144.598C101.913 149.257 97.1974 153.917 92.4897 158.577C87.4402 163.571 82.3985 168.557 77.349 173.551C72.6413 178.211 67.9258 182.878 63.2181 187.538C58.2696 192.431 53.3289 197.324 48.3804 202.217C48.1551 202.443 47.9376 202.692 47.487 202.668H47.4792Z" fill="url(#paint0_linear_2_115)"/>
<path d="M272.982 200.887C272.695 201.198 272.485 201.447 272.26 201.673C256.008 217.947 239.757 234.213 223.528 250.51C222.798 251.249 222.425 251.085 221.78 250.44C209.265 237.877 196.727 225.329 184.196 212.781C180.576 209.156 176.972 205.523 173.321 201.929C172.606 201.229 172.419 200.833 173.258 199.992C189.572 183.719 205.847 167.406 222.099 151.07C222.845 150.323 223.085 150.844 223.489 151.249C229.184 156.943 234.878 162.637 240.564 168.332C251.06 178.833 261.547 189.343 272.034 199.852C272.353 200.171 272.656 200.521 272.982 200.879V200.887Z" fill="url(#paint1_linear_2_115)"/>
<path d="M149.487 100.661V101.198C149.487 133.582 149.487 165.959 149.526 198.343C149.526 199.705 148.904 199.681 147.925 199.681C117.357 199.666 86.7876 199.666 56.2187 199.666H50.5944C83.5093 166.714 116.518 133.676 149.495 100.661H149.487Z" fill="url(#paint2_linear_2_115)"/>
<path d="M149.969 200.148C147.77 202.249 145.541 204.31 143.389 206.457C129.607 220.234 115.842 234.026 102.092 247.826C101.354 248.565 100.631 248.915 99.5435 248.915C66.7528 248.884 33.9621 248.884 1.17139 248.876C0.992715 248.876 0.814041 248.861 0.612061 248.853C0.612061 248.262 1.0704 248.036 1.37337 247.741C16.887 232.19 32.4162 216.663 47.8987 201.082C48.9397 200.039 49.934 199.643 51.379 199.643C83.657 199.681 115.943 199.674 148.221 199.674H149.689L149.961 200.148H149.969Z" fill="url(#paint3_linear_2_115)"/>
<path d="M172.575 104.489C174.33 106.278 175.939 107.935 177.57 109.569C191.646 123.664 205.723 137.76 219.799 151.856C220.312 152.369 220.879 152.68 220.009 153.551C204.293 169.226 188.617 184.94 172.932 200.646C172.87 200.708 172.785 200.739 172.575 200.872V104.489Z" fill="url(#paint4_linear_2_115)"/>
<path d="M274.699 3.09619L273.448 206.745C270.698 203.882 268.259 201.3 265.765 198.756C260.265 193.155 254.742 187.577 249.226 181.984C243.586 176.259 237.946 170.525 232.307 164.8C226.892 159.308 221.47 153.824 216.055 148.34C211.161 143.376 206.267 138.413 201.373 133.45C195.927 127.927 190.481 122.404 185.035 116.881C181.089 112.875 177.166 108.853 173.181 104.886C172.536 104.24 172.645 103.929 173.22 103.361C181.167 95.5351 189.083 87.6938 197.014 79.8524C205.498 71.4588 213.989 63.0652 222.472 54.6637C231.126 46.1068 239.78 37.542 248.434 28.985C256.956 20.5602 265.478 12.1355 274 3.71074C274.155 3.55516 274.326 3.42291 274.699 3.09619Z" fill="url(#paint5_linear_2_115)"/>
<path d="M270.1 203.431L317.612 251H223.124L270.1 203.431Z" fill="url(#paint6_linear_2_115)"/>
</g>
<defs>
<linearGradient id="paint0_linear_2_115" x1="-2.0779" y1="50.8667" x2="99.4749" y2="152.281" gradientUnits="userSpaceOnUse">
<stop stop-color="#4DC2BF"/>
<stop offset="1" stop-color="#3C58A7"/>
</linearGradient>
<linearGradient id="paint1_linear_2_115" x1="172.699" y1="200.848" x2="272.99" y2="200.848" gradientUnits="userSpaceOnUse">
<stop stop-color="#4DC2BF"/>
<stop offset="1" stop-color="#EA8C28"/>
</linearGradient>
<linearGradient id="paint2_linear_2_115" x1="74.6502" y1="160.209" x2="152.657" y2="149.709" gradientUnits="userSpaceOnUse">
<stop stop-color="#3C58A7"/>
<stop offset="1" stop-color="#E74691"/>
</linearGradient>
<linearGradient id="paint3_linear_2_115" x1="25.6844" y1="273.962" x2="124.921" y2="174.861" gradientUnits="userSpaceOnUse">
<stop stop-color="#4DC2BF"/>
<stop offset="1" stop-color="#3C58A7"/>
</linearGradient>
<linearGradient id="paint4_linear_2_115" x1="172.583" y1="152.672" x2="220.467" y2="152.672" gradientUnits="userSpaceOnUse">
<stop stop-color="#F3EC61"/>
<stop offset="1" stop-color="#BE4C9C"/>
</linearGradient>
<linearGradient id="paint5_linear_2_115" x1="214.874" y1="154.656" x2="324.634" y2="62.6839" gradientUnits="userSpaceOnUse">
<stop stop-color="#3C58A7"/>
<stop offset="1" stop-color="#E74691"/>
</linearGradient>
<linearGradient id="paint6_linear_2_115" x1="223.124" y1="227.219" x2="317.612" y2="227.219" gradientUnits="userSpaceOnUse">
<stop stop-color="#F3EC61"/>
<stop offset="1" stop-color="#BE4C9C"/>
</linearGradient>
<clipPath id="clip0_2_115">
<rect width="317" height="251" fill="white" transform="translate(0.612061)"/>
</clipPath>
</defs>
</svg>
